<?xml version="1.0" encoding="UTF-8"?>
<svg version="1.1" viewBox="0 0 2000 2000" width="499" height="500" xmlns="http://www.w3.org/2000/svg">
<path transform="translate(1449,581)" d="m0 0h6l10 6 10 9 11 12 9 11 14 17 9 11 8 8 7 8 14 15 7 8 14 17 12 16 14 18 16 23 13 21 12 23 10 19 10 21 14 36 8 22 9 30 10 50 4 31 2 21v60l-4 41-4 25-7 29-18 55-12 29-13 28-15 30-9 16-6 12-10 17-13 20-23 34-8 11-14 18-11 13-9 11-15 16-12 13-27 27-8 7-12 11-11 9-10 9-16 13-16 12-14 11-19 13-39 26-17 11-11 7-20 12-24 14-42 22-25 12-15 7-22 10-12 5-19 9-40 16-42 15-30 11-36 12-35 11-27 8-30 8-48 12-49 11-60 12-46 9-14 2h-11l-7-3-4-5-10-28-11-29-13-33-11-29-21-55-6-14-10-28-8-20-6-18-15-39-14-37-20-52-9-24-19-51-8-20-8-21-11-28-15-40-10-27-6-17-10-25-4-13-17-44-7-16-8-19-2-6v-5l10 2 21 7 14 5 35 9 31 7 32 9 46 11 71 14 51 8 22 2 50 6 85 4 68 2 47-2 50-4 57-8 37-7 42-10 34-10 26-8 15-6 21-7 39-16 29-14 27-15 17-11 19-13 21-16 11-9 10-9 8-7 12-12 9-11 13-16 13-19 9-14 15-28 8-18 5-15 4-16 7-43v-37l-6-47-4-23-8-29-10-32-7-18-7-20-11-27-5-17-1-5v-18l3-7z" fill="#A2A3A2"/>
<path transform="translate(829,220)" d="m0 0h31l41 2 55 5 38 6 48 10 52 13 54 16 37 12 31 11 39 15 24 10 23 10 27 12 23 11 23 12 22 13 4 4 1 5-5 4-12 5-9 2h-19l-34-4-73-10-28-3-15-1-6-1h-11l-23-2-28-1h-20l-36 1-29 2-35 5-33 7-20 6-19 7-22 10-23 13-16 10-13 10-16 15-2 3h-2l-2 4-10 13-11 18-10 18-9 20-7 21-7 39-4 34-1 14v32l1 35 2 22 9 68 8 41 7 31 16 62 14 46 9 27 13 35 22 55 11 27 18 48 2 14-3 2-16-1-17-3-32-7-53-9-16-3-51-8-66-12-18-3-69-12-102-18-21-4-29-5-8-2-18-2-27-6-7-4-5-10-5-17-19-95-11-77-4-46-2-43v-40l2-48 3-35 5-33 9-47 7-28 8-26 10-29 14-29 16-30 12-19 11-18 12-17 13-16 8-10 28-30 12-11 14-12 14-11 19-14 15-9 24-14 25-12 23-9 27-10 34-10 40-8 24-4 26-3 14-1z" fill="#A2A3A2"/>
<path transform="translate(1052,533)" d="m0 0h37l26 4 35 9 30 10 23 10 16 8 20 12 15 10 16 12 10 8 11 9 12 11 8 7v2h2l7 8 7 7 9 11 14 19 12 19 8 16 8 17 7 22 4 20 2 23v21l-4 27-6 21-7 15-7 13-9 13-8 10-17 17-12 9-16 10-19 9-30 10-25 5-25 2h-18l-18-1-35-6-25-7-29-10-26-12-22-12-15-10-16-11-22-18-12-11-8-8-7-8-9-9-7-8-9-12-13-20-9-16-8-17-10-30-6-25-3-16-1-25 3-25 5-21 9-21 8-14 8-11 11-12 16-16 17-12 20-12 15-7 18-6 25-5z" fill="#A2A3A2"/>
</svg>
